<svg width="234" height="130" viewBox="0 0 234 130" fill="none" xmlns="http://www.w3.org/2000/svg">
<rect width="233.127" height="129.768" rx="25" fill="#99AAB5"/>
<rect x="71.0308" y="96.5291" width="91.0651" height="19.579" rx="9.7895" fill="#292F33"/>
<rect x="39.1582" y="96.5291" width="25.4982" height="19.579" rx="9.7895" fill="#292F33"/>
<rect x="15.9365" y="45.0771" width="19.1237" height="19.579" rx="9.56184" fill="#292F33"/>
<rect x="41.8901" y="45.0771" width="19.1237" height="19.579" rx="9.56184" fill="#292F33"/>
<rect x="29.1406" y="71.0308" width="19.1237" height="19.1237" rx="9.56184" fill="#292F33"/>
<rect x="55.0942" y="71.0308" width="19.1237" height="19.1237" rx="9.56184" fill="#292F33"/>
<rect x="81.0479" y="71.0308" width="19.1237" height="19.1237" rx="9.56184" fill="#292F33"/>
<rect x="158.909" y="71.0308" width="19.1237" height="19.1237" rx="9.56184" fill="#292F33"/>
<rect x="132.955" y="71.0308" width="19.1237" height="19.1237" rx="9.56184" fill="#292F33"/>
<rect x="107.001" y="71.0308" width="19.1237" height="19.1237" rx="9.56184" fill="#292F33"/>
<rect x="184.862" y="71.0308" width="19.1237" height="19.1237" rx="9.56184" fill="#292F33"/>
<rect x="67.8438" y="45.0771" width="19.1237" height="19.579" rx="9.56184" fill="#292F33"/>
<rect x="93.7969" y="45.0771" width="19.1237" height="19.579" rx="9.56184" fill="#292F33"/>
<rect x="172.113" y="45.0771" width="19.1237" height="19.579" rx="9.56184" fill="#292F33"/>
<rect x="198.067" y="45.0771" width="19.1237" height="19.579" rx="9.56184" fill="#292F33"/>
<rect x="120.206" y="45.0771" width="19.1237" height="19.579" rx="9.56184" fill="#292F33"/>
<rect x="146.16" y="45.0771" width="19.1237" height="19.579" rx="9.56184" fill="#292F33"/>
<rect x="15.9365" y="13.2043" width="19.579" height="12.7491" rx="6.37456" fill="#292F33"/>
<rect x="41.8901" y="13.2043" width="19.579" height="12.7491" rx="6.37456" fill="#292F33"/>
<rect x="67.8438" y="13.2043" width="19.579" height="12.7491" rx="6.37456" fill="#292F33"/>
<rect x="93.7969" y="13.2043" width="19.579" height="12.7491" rx="6.37456" fill="#292F33"/>
<rect x="197.611" y="13.2043" width="19.579" height="12.7491" rx="6.37456" fill="#292F33"/>
<rect x="171.658" y="13.2043" width="19.579" height="12.7491" rx="6.37456" fill="#292F33"/>
<rect x="145.704" y="13.2043" width="19.579" height="12.7491" rx="6.37456" fill="#292F33"/>
<rect x="119.75" y="13.2043" width="19.579" height="12.7491" rx="6.37456" fill="#292F33"/>
<rect x="168.471" y="96.5291" width="25.4982" height="19.579" rx="9.7895" fill="#292F33"/>
</svg>
